<?xml version="1.0" encoding="UTF-8" standalone="no"?>
<!DOCTYPE svg PUBLIC "-//W3C//DTD SVG 1.1//EN"
 "http://www.w3.org/Graphics/SVG/1.1/DTD/svg11.dtd">
<!-- Generated by graphviz version 2.50.0 (0)
 -->
<!-- Title: snakemake_dag Pages: 1 -->
<svg width="640pt" height="553pt"
 viewBox="0.00 0.00 640.00 553.00" xmlns="http://www.w3.org/2000/svg" xmlns:xlink="http://www.w3.org/1999/xlink">
<g id="graph0" class="graph" transform="scale(1 1) rotate(0) translate(4 549)">
<title>snakemake_dag</title>
<polygon fill="white" stroke="transparent" points="-4,4 -4,-549 636,-549 636,4 -4,4"/>
<!-- 0 -->
<g id="node1" class="node">
<title>0</title>
<path fill="none" stroke="#56d0d8" stroke-width="2" d="M205.5,-36C205.5,-36 175.5,-36 175.5,-36 169.5,-36 163.5,-30 163.5,-24 163.5,-24 163.5,-12 163.5,-12 163.5,-6 169.5,0 175.5,0 175.5,0 205.5,0 205.5,0 211.5,0 217.5,-6 217.5,-12 217.5,-12 217.5,-24 217.5,-24 217.5,-30 211.5,-36 205.5,-36"/>
<text text-anchor="middle" x="190.5" y="-15.5" font-family="sans" font-size="10.00">all</text>
</g>
<!-- 1 -->
<g id="node2" class="node">
<title>1</title>
<path fill="none" stroke="#56a9d8" stroke-width="2" d="M175,-396C175,-396 68,-396 68,-396 62,-396 56,-390 56,-384 56,-384 56,-372 56,-372 56,-366 62,-360 68,-360 68,-360 175,-360 175,-360 181,-360 187,-366 187,-372 187,-372 187,-384 187,-384 187,-390 181,-396 175,-396"/>
<text text-anchor="middle" x="121.5" y="-375.5" font-family="sans" font-size="10.00">compress_santize_data</text>
</g>
<!-- 1&#45;&gt;0 -->
<g id="edge1" class="edge">
<title>1&#45;&gt;0</title>
<path fill="none" stroke="grey" stroke-width="2" d="M108.56,-359.66C90.66,-333.88 60.5,-283.3 60.5,-235 60.5,-235 60.5,-235 60.5,-161 60.5,-105.15 115.89,-61.71 154.36,-38.27"/>
<polygon fill="grey" stroke="grey" stroke-width="2" points="156.42,-41.12 163.25,-33.03 152.86,-35.09 156.42,-41.12"/>
</g>
<!-- 2 -->
<g id="node3" class="node">
<title>2</title>
<path fill="none" stroke="#d8a456" stroke-width="2" d="M391,-545C391,-545 12,-545 12,-545 6,-545 0,-539 0,-533 0,-533 0,-516 0,-516 0,-510 6,-504 12,-504 12,-504 391,-504 391,-504 397,-504 403,-510 403,-516 403,-516 403,-533 403,-533 403,-539 397,-545 391,-545"/>
<text text-anchor="middle" x="201.5" y="-533" font-family="sans" font-size="10.00">update</text>
<text text-anchor="middle" x="201.5" y="-522" font-family="sans" font-size="10.00">base_path: /home/nsm/Desktop/All_Development/NIBMG_SARS/backend/media</text>
<text text-anchor="middle" x="201.5" y="-511" font-family="sans" font-size="10.00">date: 2021&#45;07&#45;03_01&#45;31&#45;27&#45;PM</text>
</g>
<!-- 2&#45;&gt;1 -->
<g id="edge3" class="edge">
<title>2&#45;&gt;1</title>
<path fill="none" stroke="grey" stroke-width="2" d="M190.54,-503.71C176.4,-478.16 151.73,-433.6 136.03,-405.24"/>
<polygon fill="grey" stroke="grey" stroke-width="2" points="138.98,-403.35 131.08,-396.3 132.86,-406.74 138.98,-403.35"/>
</g>
<!-- 3 -->
<g id="node4" class="node">
<title>3</title>
<path fill="none" stroke="#56d892" stroke-width="2" d="M276,-468C276,-468 221,-468 221,-468 215,-468 209,-462 209,-456 209,-456 209,-444 209,-444 209,-438 215,-432 221,-432 221,-432 276,-432 276,-432 282,-432 288,-438 288,-444 288,-444 288,-456 288,-456 288,-462 282,-468 276,-468"/>
<text text-anchor="middle" x="248.5" y="-447.5" font-family="sans" font-size="10.00">santize_data</text>
</g>
<!-- 2&#45;&gt;3 -->
<g id="edge5" class="edge">
<title>2&#45;&gt;3</title>
<path fill="none" stroke="grey" stroke-width="2" d="M214.34,-503.69C219.72,-495.39 226.05,-485.63 231.79,-476.78"/>
<polygon fill="grey" stroke="grey" stroke-width="2" points="234.77,-478.61 237.27,-468.32 228.9,-474.81 234.77,-478.61"/>
</g>
<!-- 3&#45;&gt;1 -->
<g id="edge4" class="edge">
<title>3&#45;&gt;1</title>
<path fill="none" stroke="grey" stroke-width="2" d="M217.43,-431.88C200.67,-422.64 179.79,-411.13 161.8,-401.21"/>
<polygon fill="grey" stroke="grey" stroke-width="2" points="163.13,-397.95 152.69,-396.19 159.76,-404.08 163.13,-397.95"/>
</g>
<!-- 6 -->
<g id="node7" class="node">
<title>6</title>
<path fill="none" stroke="#56d8b9" stroke-width="2" d="M436,-324C436,-324 329,-324 329,-324 323,-324 317,-318 317,-312 317,-312 317,-300 317,-300 317,-294 323,-288 329,-288 329,-288 436,-288 436,-288 442,-288 448,-294 448,-300 448,-300 448,-312 448,-312 448,-318 442,-324 436,-324"/>
<text text-anchor="middle" x="382.5" y="-303.5" font-family="sans" font-size="10.00">combine_clade_lineage</text>
</g>
<!-- 3&#45;&gt;6 -->
<g id="edge12" class="edge">
<title>3&#45;&gt;6</title>
<path fill="none" stroke="grey" stroke-width="2" d="M288.32,-443.38C337.77,-435.49 417.8,-419.42 435.5,-396 451.27,-375.14 432.02,-349.26 412.45,-330.79"/>
<polygon fill="grey" stroke="grey" stroke-width="2" points="414.78,-328.19 405.01,-324.11 410.11,-333.39 414.78,-328.19"/>
</g>
<!-- 7 -->
<g id="node8" class="node">
<title>7</title>
<path fill="none" stroke="#d8cb56" stroke-width="2" d="M309,-396C309,-396 256,-396 256,-396 250,-396 244,-390 244,-384 244,-384 244,-372 244,-372 244,-366 250,-360 256,-360 256,-360 309,-360 309,-360 315,-360 321,-366 321,-372 321,-372 321,-384 321,-384 321,-390 315,-396 309,-396"/>
<text text-anchor="middle" x="282.5" y="-375.5" font-family="sans" font-size="10.00">clade_report</text>
</g>
<!-- 3&#45;&gt;7 -->
<g id="edge15" class="edge">
<title>3&#45;&gt;7</title>
<path fill="none" stroke="grey" stroke-width="2" d="M256.9,-431.7C260.77,-423.73 265.45,-414.1 269.74,-405.26"/>
<polygon fill="grey" stroke="grey" stroke-width="2" points="272.97,-406.63 274.19,-396.1 266.67,-403.57 272.97,-406.63"/>
</g>
<!-- 8 -->
<g id="node9" class="node">
<title>8</title>
<path fill="none" stroke="#567bd8" stroke-width="2" d="M414,-396C414,-396 351,-396 351,-396 345,-396 339,-390 339,-384 339,-384 339,-372 339,-372 339,-366 345,-360 351,-360 351,-360 414,-360 414,-360 420,-360 426,-366 426,-372 426,-372 426,-384 426,-384 426,-390 420,-396 414,-396"/>
<text text-anchor="middle" x="382.5" y="-375.5" font-family="sans" font-size="10.00">lineage_report</text>
</g>
<!-- 3&#45;&gt;8 -->
<g id="edge16" class="edge">
<title>3&#45;&gt;8</title>
<path fill="none" stroke="grey" stroke-width="2" d="M281.28,-431.88C299.13,-422.55 321.4,-410.92 340.5,-400.94"/>
<polygon fill="grey" stroke="grey" stroke-width="2" points="342.35,-403.92 349.59,-396.19 339.11,-397.72 342.35,-403.92"/>
</g>
<!-- 9 -->
<g id="node10" class="node">
<title>9</title>
<path fill="none" stroke="#8fd856" stroke-width="2" d="M342.5,-252C342.5,-252 298.5,-252 298.5,-252 292.5,-252 286.5,-246 286.5,-240 286.5,-240 286.5,-228 286.5,-228 286.5,-222 292.5,-216 298.5,-216 298.5,-216 342.5,-216 342.5,-216 348.5,-216 354.5,-222 354.5,-228 354.5,-228 354.5,-240 354.5,-240 354.5,-246 348.5,-252 342.5,-252"/>
<text text-anchor="middle" x="320.5" y="-231.5" font-family="sans" font-size="10.00">split_state</text>
</g>
<!-- 3&#45;&gt;9 -->
<g id="edge17" class="edge">
<title>3&#45;&gt;9</title>
<path fill="none" stroke="grey" stroke-width="2" d="M241.3,-431.94C234.68,-413.77 226.93,-384.35 234.5,-360 246.65,-320.9 275.75,-283.2 296.74,-259.62"/>
<polygon fill="grey" stroke="grey" stroke-width="2" points="299.36,-261.93 303.51,-252.18 294.19,-257.22 299.36,-261.93"/>
</g>
<!-- 4 -->
<g id="node5" class="node">
<title>4</title>
<path fill="none" stroke="#d87d56" stroke-width="2" d="M368,-108C368,-108 273,-108 273,-108 267,-108 261,-102 261,-96 261,-96 261,-84 261,-84 261,-78 267,-72 273,-72 273,-72 368,-72 368,-72 374,-72 380,-78 380,-84 380,-84 380,-96 380,-96 380,-102 374,-108 368,-108"/>
<text text-anchor="middle" x="320.5" y="-87.5" font-family="sans" font-size="10.00">upload_to_ondedrive</text>
</g>
<!-- 4&#45;&gt;0 -->
<g id="edge2" class="edge">
<title>4&#45;&gt;0</title>
<path fill="none" stroke="grey" stroke-width="2" d="M288.7,-71.88C269.88,-61.74 245.99,-48.88 226.48,-38.37"/>
<polygon fill="grey" stroke="grey" stroke-width="2" points="228.04,-35.24 217.58,-33.58 224.73,-41.4 228.04,-35.24"/>
</g>
<!-- 5 -->
<g id="node6" class="node">
<title>5</title>
<path fill="none" stroke="#d85656" stroke-width="2" d="M620,-180C620,-180 561,-180 561,-180 555,-180 549,-174 549,-168 549,-168 549,-156 549,-156 549,-150 555,-144 561,-144 561,-144 620,-144 620,-144 626,-144 632,-150 632,-156 632,-156 632,-168 632,-168 632,-174 626,-180 620,-180"/>
<text text-anchor="middle" x="590.5" y="-159.5" font-family="sans" font-size="10.00">voc_id_report</text>
</g>
<!-- 5&#45;&gt;4 -->
<g id="edge6" class="edge">
<title>5&#45;&gt;4</title>
<path fill="none" stroke="grey" stroke-width="2" d="M548.85,-146.52C546.03,-145.64 543.23,-144.79 540.5,-144 490.61,-129.54 433.58,-115.88 390.09,-106.05"/>
<polygon fill="grey" stroke="grey" stroke-width="2" points="390.7,-102.6 380.18,-103.83 389.17,-109.43 390.7,-102.6"/>
</g>
<!-- 6&#45;&gt;5 -->
<g id="edge10" class="edge">
<title>6&#45;&gt;5</title>
<path fill="none" stroke="grey" stroke-width="2" d="M407.59,-287.87C444.91,-262.39 515.13,-214.45 556.87,-185.96"/>
<polygon fill="grey" stroke="grey" stroke-width="2" points="559.04,-188.72 565.32,-180.19 555.09,-182.94 559.04,-188.72"/>
</g>
<!-- 6&#45;&gt;9 -->
<g id="edge18" class="edge">
<title>6&#45;&gt;9</title>
<path fill="none" stroke="grey" stroke-width="2" d="M367.17,-287.7C359.74,-279.3 350.68,-269.07 342.52,-259.86"/>
<polygon fill="grey" stroke="grey" stroke-width="2" points="344.9,-257.27 335.65,-252.1 339.66,-261.91 344.9,-257.27"/>
</g>
<!-- 10 -->
<g id="node11" class="node">
<title>10</title>
<path fill="none" stroke="#b6d856" stroke-width="2" d="M519,-180C519,-180 448,-180 448,-180 442,-180 436,-174 436,-168 436,-168 436,-156 436,-156 436,-150 442,-144 448,-144 448,-144 519,-144 519,-144 525,-144 531,-150 531,-156 531,-156 531,-168 531,-168 531,-174 525,-180 519,-180"/>
<text text-anchor="middle" x="483.5" y="-159.5" font-family="sans" font-size="10.00">mutation_report</text>
</g>
<!-- 6&#45;&gt;10 -->
<g id="edge20" class="edge">
<title>6&#45;&gt;10</title>
<path fill="none" stroke="grey" stroke-width="2" d="M394.68,-287.87C412.28,-263.14 444.92,-217.24 465.35,-188.51"/>
<polygon fill="grey" stroke="grey" stroke-width="2" points="468.33,-190.37 471.27,-180.19 462.63,-186.31 468.33,-190.37"/>
</g>
<!-- 11 -->
<g id="node12" class="node">
<title>11</title>
<path fill="none" stroke="#56d86b" stroke-width="2" d="M192.5,-180C192.5,-180 100.5,-180 100.5,-180 94.5,-180 88.5,-174 88.5,-168 88.5,-168 88.5,-156 88.5,-156 88.5,-150 94.5,-144 100.5,-144 100.5,-144 192.5,-144 192.5,-144 198.5,-144 204.5,-150 204.5,-156 204.5,-156 204.5,-168 204.5,-168 204.5,-174 198.5,-180 192.5,-180"/>
<text text-anchor="middle" x="146.5" y="-159.5" font-family="sans" font-size="10.00">voc_progress_report</text>
</g>
<!-- 6&#45;&gt;11 -->
<g id="edge21" class="edge">
<title>6&#45;&gt;11</title>
<path fill="none" stroke="grey" stroke-width="2" d="M345.92,-287.98C325.45,-278.1 299.67,-265.05 277.5,-252 242.38,-231.32 204,-204.75 177.92,-186.04"/>
<polygon fill="grey" stroke="grey" stroke-width="2" points="179.73,-183.03 169.57,-180.02 175.63,-188.71 179.73,-183.03"/>
</g>
<!-- 12 -->
<g id="node13" class="node">
<title>12</title>
<path fill="none" stroke="#68d856" stroke-width="2" d="M406,-180C406,-180 235,-180 235,-180 229,-180 223,-174 223,-168 223,-168 223,-156 223,-156 223,-150 229,-144 235,-144 235,-144 406,-144 406,-144 412,-144 418,-150 418,-156 418,-156 418,-168 418,-168 418,-174 412,-180 406,-180"/>
<text text-anchor="middle" x="320.5" y="-159.5" font-family="sans" font-size="10.00">lineage_substitution_deletion_report</text>
</g>
<!-- 6&#45;&gt;12 -->
<g id="edge23" class="edge">
<title>6&#45;&gt;12</title>
<path fill="none" stroke="grey" stroke-width="2" d="M381.23,-287.84C379.33,-269.33 374.68,-239.38 363.5,-216 358.7,-205.95 351.63,-196.14 344.6,-187.75"/>
<polygon fill="grey" stroke="grey" stroke-width="2" points="347.18,-185.38 337.95,-180.17 341.92,-189.99 347.18,-185.38"/>
</g>
<!-- 7&#45;&gt;6 -->
<g id="edge13" class="edge">
<title>7&#45;&gt;6</title>
<path fill="none" stroke="grey" stroke-width="2" d="M306.96,-359.88C319.8,-350.89 335.7,-339.76 349.59,-330.03"/>
<polygon fill="grey" stroke="grey" stroke-width="2" points="351.76,-332.79 357.94,-324.19 347.74,-327.06 351.76,-332.79"/>
</g>
<!-- 8&#45;&gt;6 -->
<g id="edge14" class="edge">
<title>8&#45;&gt;6</title>
<path fill="none" stroke="grey" stroke-width="2" d="M382.5,-359.7C382.5,-351.98 382.5,-342.71 382.5,-334.11"/>
<polygon fill="grey" stroke="grey" stroke-width="2" points="386,-334.1 382.5,-324.1 379,-334.1 386,-334.1"/>
</g>
<!-- 9&#45;&gt;5 -->
<g id="edge11" class="edge">
<title>9&#45;&gt;5</title>
<path fill="none" stroke="grey" stroke-width="2" d="M354.67,-225.78C396.19,-216.79 468.53,-200.42 538.93,-180.34"/>
<polygon fill="grey" stroke="grey" stroke-width="2" points="540.21,-183.61 548.85,-177.48 538.27,-176.89 540.21,-183.61"/>
</g>
<!-- 9&#45;&gt;10 -->
<g id="edge19" class="edge">
<title>9&#45;&gt;10</title>
<path fill="none" stroke="grey" stroke-width="2" d="M354.67,-218.33C377.78,-208.4 408.67,-195.14 434.41,-184.08"/>
<polygon fill="grey" stroke="grey" stroke-width="2" points="435.82,-187.28 443.63,-180.12 433.06,-180.85 435.82,-187.28"/>
</g>
<!-- 9&#45;&gt;11 -->
<g id="edge22" class="edge">
<title>9&#45;&gt;11</title>
<path fill="none" stroke="grey" stroke-width="2" d="M286.12,-219.17C261.03,-209.08 226.58,-195.22 198.18,-183.79"/>
<polygon fill="grey" stroke="grey" stroke-width="2" points="199.39,-180.5 188.8,-180.02 196.78,-187 199.39,-180.5"/>
</g>
<!-- 9&#45;&gt;12 -->
<g id="edge24" class="edge">
<title>9&#45;&gt;12</title>
<path fill="none" stroke="grey" stroke-width="2" d="M320.5,-215.7C320.5,-207.98 320.5,-198.71 320.5,-190.11"/>
<polygon fill="grey" stroke="grey" stroke-width="2" points="324,-190.1 320.5,-180.1 317,-190.1 324,-190.1"/>
</g>
<!-- 10&#45;&gt;4 -->
<g id="edge7" class="edge">
<title>10&#45;&gt;4</title>
<path fill="none" stroke="grey" stroke-width="2" d="M443.63,-143.88C421.34,-134.31 393.38,-122.3 369.74,-112.15"/>
<polygon fill="grey" stroke="grey" stroke-width="2" points="370.81,-108.8 360.24,-108.07 368.05,-115.23 370.81,-108.8"/>
</g>
<!-- 11&#45;&gt;4 -->
<g id="edge8" class="edge">
<title>11&#45;&gt;4</title>
<path fill="none" stroke="grey" stroke-width="2" d="M189.07,-143.88C213.06,-134.22 243.23,-122.09 268.6,-111.88"/>
<polygon fill="grey" stroke="grey" stroke-width="2" points="270.1,-115.05 278.07,-108.07 267.49,-108.55 270.1,-115.05"/>
</g>
<!-- 12&#45;&gt;4 -->
<g id="edge9" class="edge">
<title>12&#45;&gt;4</title>
<path fill="none" stroke="grey" stroke-width="2" d="M320.5,-143.7C320.5,-135.98 320.5,-126.71 320.5,-118.11"/>
<polygon fill="grey" stroke="grey" stroke-width="2" points="324,-118.1 320.5,-108.1 317,-118.1 324,-118.1"/>
</g>
</g>
</svg>
